<?xml version="1.0" encoding="utf-8"?>
<!-- Generator: Adobe Illustrator 25.1.0, SVG Export Plug-In . SVG Version: 6.00 Build 0)  -->
<svg version="1.1" id="Layer_1" xmlns="http://www.w3.org/2000/svg" xmlns:xlink="http://www.w3.org/1999/xlink" x="0px" y="0px"
	 viewBox="0 0 500 236.5" style="enable-background:new 0 0 500 236.5;" xml:space="preserve">
<style type="text/css">
	.st0{fill:#FFFFFF;}
</style>
<path class="st0" d="M425.3,79.8c18-27.4-34.4-51-34.4-51C321-3.5,216.8,0.1,216.8,0.1c3.9,2.6,15.9,14.6,15.9,14.6
	s-84.5,3.4-146.1,35.8c10.4,0.5,26.9,5,26.9,5c-15.9,5-40.4,21.4-40.4,21.4c7.3-0.5,17.7,0.8,17.7,0.8C28.7,104.8,0,144.4,0,144.4
	c81.4-25.1,99.2-22.7,99.2-22.7c-1.4,1.3-3.2,3.4-5.4,5.9c-9.3,0.6-38.6,3.4-84.5,17.3l-1.7,1.4c0,0,48.1-11.8,79-9.9
	c-7.5,9.3-15.1,19.3-15.1,19.3l26.9,2.3c-30,23.7-53,15.4-53,15.4c56.1,68.1,119.5,29.7,119.5,29.7c14.8-8.7,26-12.5,33.7-14.2
	c0.7,1.1,1.4,2.2,2.4,3.4c-7.7,2.5-19.9,6.9-27.8,12.4c0,0-52.9,33.5-97.8-0.5l0.3,1.4c0,0,44,47.8,137.1-4.5
	c8.4,3.7,20.9,5.3,39.2,1.5c0,0,35.8-8.6,63.4,2.4c0,0,64.2,27.9,101.5-9.1c0,0,13,18.8-5.5,40.7c0,0,70.7-15.7,86.1-66
	C497.6,170.5,520.3,112.3,425.3,79.8z M43.1,118.9C103.6,81.5,148,74,148,74c-14.1-3.7-33.9-3.4-33.9-3.4
	c28.7-13.3,58.7-15.7,58.7-15.7c-17.2-8.3-39.4-8.6-39.4-8.6C227,15.5,279.2,33.8,279.2,33.8c-3.4-7.6-18.5-12.5-18.5-12.5
	c65-4.4,125.3,21.4,125.3,21.4c24,11,20.9,26.1,20.9,26.1C403.4,87,394,87.3,394,87.3c-6,1-9.1-7.3-9.1-7.3c-1.3,10.4-8.3,13-8.3,13
	c-20.9,7-42.3-10.4-42.3-10.4c-45.7-32.9-77.5-26.4-77.5-26.4C278.7,62,287,78.4,287,78.4c-32.6,9.9-67.6-8.9-67.6-8.9
	c12.8,22.2,49.8,25,49.8,25c-13.6,5.5-31.1,1.8-31.1,1.8c12.3,10.2,31.6,8.9,31.6,8.9c7.6,10.2,18,12.5,18,12.5
	c-13.8,13.3-44.1,14.9-44.1,14.9c29.7,9.4,52.7-6.5,52.7-6.5c-22.2,30.8-66.8,20.1-66.8,20.1c-35.8-7-63.7,4.7-75.6,11.1
	c10-17.2,39.9-29.6,39.9-29.6c-37.2-5.4-75,11.2-88.9,18.2c25.1-22.7,54.4-38.3,54.4-38.3C116.6,92.8,43.1,118.9,43.1,118.9z
	 M323.2,99.4c0,3-2.3,5.4-5.2,5.4c-1.8,0-3.3-0.9-4.3-2.3c0,0.4-0.1,0.9-0.1,1.3c0,6.7,5.5,12,12.3,12c6.8,0,12.3-5.4,12.3-12
	c0-1-0.1-2-0.4-2.9c12.7,6.3,21.9,2.2,21.9,2.2c-5.2,4.2-10.3,5-10.3,5c-4.7,14.3-19.9,17.1-19.9,17.1c-11.5-8-23.7-6.9-23.7-6.9
	c-27.1-27.1-0.9-40.1-0.9-40.1c5.7,6.3,17.9,13.9,17.9,13.9c-1.5,0.4-2.9,1.1-4.2,2C321.2,94.4,323.2,96.6,323.2,99.4z M142.7,191.1
	c-35.9,7.1-53.8-10.4-56.9-13.8c33.5,7.5,66.6-9.4,66.6-9.4c55.6-27.1,70.2-6.3,70.2-6.3c-20.9-10.7-46.2,11.7-46.2,11.7
	C157.9,189.1,142.7,191.1,142.7,191.1z M479.9,170.5c0,0-11.7,31.1-45.7,46.7c0,0,14.6-43.1-19.8-51.1c0,0-7.6-1.3-15.9,2.6
	c0,0-29.5,12.5-44.9-9.1c0,0-25.6-6.5-62.9,10.2l-1.3,1.3c0,0,27.9-8.1,54.5-2.3c0,0,22.7,26.6,70.7,7.3c0,0-12.8,32.6-62.6,24.3
	c0,0-18.3-3.4-33.9-10.2c0,0-33.9-13.8-76.2-2.3c0,0,0,0,0,0c-2.4-5.1,8.9-16.5,8.9-16.5c10.7-10.4,20.4-9.9,20.4-9.9
	c67.8-8.6,91.3-39.9,91.3-39.9c19.6-26.2,38.3-31.7,48.2-32.6c8.8,1.4,22.6,5.4,39.7,16.4C450.4,105.3,491.6,130.3,479.9,170.5z"/>
</svg>
