<?xml version="1.0" encoding="utf-8"?>
<!-- Generator: Adobe Illustrator 25.2.0, SVG Export Plug-In . SVG Version: 6.00 Build 0)  -->
<svg version="1.1" id="Layer_1" xmlns="http://www.w3.org/2000/svg" xmlns:xlink="http://www.w3.org/1999/xlink" x="0px" y="0px"
	 viewBox="0 0 200 80.9" style="enable-background:new 0 0 200 80.9;" xml:space="preserve">
<style type="text/css">
	.st0{fill:#FFC832;}
	.st1{fill:#141414;}
</style>
<g>
	<path class="st0" d="M200,13v67.8H0V13C0,5.9,5.9,0,13,0H187C194.1,0,200,5.9,200,13z"/>
</g>
<g>
	<polygon class="st1" points="151.5,80.9 182.4,80.9 190.1,62.4 159.1,62.4 	"/>
	<path class="st1" d="M187,0h-2l-7.7,18.5H200V13C200,5.9,194.1,0,187,0z"/>
</g>
<g>
	<polygon class="st1" points="158.8,0 127.8,0 120.2,18.5 151.1,18.5 	"/>
	<polygon class="st1" points="94.3,80.9 125.3,80.9 132.9,62.4 102,62.4 	"/>
</g>
<g>
	<polygon class="st1" points="101.6,0 70.7,0 63,18.5 94,18.5 	"/>
	<polygon class="st1" points="37.2,80.9 68.1,80.9 75.8,62.4 44.9,62.4 	"/>
</g>
<g>
	<polygon class="st1" points="44.5,0 13.6,0 5.9,18.5 36.8,18.5 	"/>
	<polygon class="st1" points="0,80.9 11,80.9 18.6,62.4 0,62.4 	"/>
</g>
<g>
	<path class="st1" d="M65.7,28v4.2h7.4v20.7h5V32.2h7.4V28H65.7z"/>
	<path class="st1" d="M111.3,40c-0.1-3.8-1.2-6.9-3.3-9.1c-2.2-2.3-5.1-3.4-8.8-3.4c-2,0-3.8,0.3-5.4,1c-1.2,0.5-2.2,1.2-3.2,2.2
		c-1,1-1.8,2.1-2.3,3.4c-0.8,1.7-1.1,3.9-1.1,6.4c0,4,1.1,7.1,3.3,9.3c2.2,2.3,5.1,3.4,8.8,3.4c3,0,5.5-0.8,7.5-2.3
		c0.5-0.3,0.9-0.7,1.3-1.1c2.2-2.3,3.3-5.4,3.3-9.4C111.3,40.3,111.3,40.2,111.3,40z M104.1,46.8c-1.3,1.4-2.9,2.2-4.9,2.2
		c-2,0-3.7-0.7-5-2.2c-1.3-1.5-2-3.6-2-6.4c0-2.9,0.6-5,1.9-6.4c1.3-1.4,2.9-2.1,5-2.1c2.1,0,3.7,0.7,5,2.1c1.3,1.4,1.9,3.5,1.9,6.4
		C106.1,43.2,105.4,45.4,104.1,46.8z"/>
	<path class="st1" d="M132.8,30.8c-1-1.3-2.2-2.1-3.6-2.4c-0.9-0.2-2.9-0.4-6-0.4h-8.1v24.9h5v-9.4h3.3c2.3,0,4-0.1,5.2-0.4
		c0.9-0.2,1.8-0.6,2.6-1.2c0.9-0.6,1.6-1.4,2.1-2.5c0.6-1,0.8-2.3,0.8-3.9C134.3,33.7,133.8,32,132.8,30.8z M128.5,37.6
		c-0.4,0.6-0.9,1-1.6,1.2c-0.7,0.3-2,0.4-4,0.4h-2.8v-7.1h2.4c1.8,0,3,0.1,3.6,0.2c0.8,0.1,1.5,0.5,2,1.1c0.5,0.6,0.8,1.3,0.8,2.2
		C129.1,36.4,128.9,37.1,128.5,37.6z"/>
</g>
</svg>
